<?xml version="1.0" encoding="UTF-8" standalone="no"?>
<!DOCTYPE svg PUBLIC "-//W3C//DTD SVG 1.1//EN" "http://www.w3.org/Graphics/SVG/1.1/DTD/svg11.dtd">
<svg version="1.1" xmlns="http://www.w3.org/2000/svg" xmlns:xlink="http://www.w3.org/1999/xlink" preserveAspectRatio="xMidYMid meet" viewBox="0 0 640 640" width="640" height="640"><defs><path d="M67.64 201.15C87.53 201.15 103.65 217.27 103.65 237.16C103.65 316.86 103.65 519.93 103.65 599.62C103.65 619.51 87.53 635.64 67.64 635.64C55.87 635.64 56.56 635.64 44.79 635.64C24.9 635.64 8.78 619.51 8.78 599.62C8.78 519.93 8.78 316.86 8.78 237.16C8.78 217.27 24.9 201.15 44.79 201.15C56.56 201.15 55.87 201.15 67.64 201.15Z" id="cr4MB67TT"></path><path d="M96.67 270.72C74.37 286.96 43.52 284.29 24.34 264.46C17.65 257.54 31.03 271.38 24.34 264.46C6.67 246.19 9.24 216.52 29.79 201.56C89.32 158.21 229.03 56.49 288.56 13.14C310.86 -3.1 341.71 -0.42 360.89 19.41C367.58 26.33 354.2 12.49 360.89 19.41C378.56 37.68 375.99 67.35 355.44 82.31C295.91 125.66 156.2 227.38 96.67 270.72Z" id="b3mijboK1"></path><path d="M614.35 201.54C634.89 216.5 637.46 246.17 619.8 264.44C613.11 271.35 626.49 257.52 619.8 264.44C600.62 284.27 569.77 286.94 547.46 270.7C487.93 227.36 348.23 125.63 288.7 82.29C268.15 67.33 265.58 37.66 283.25 19.39C289.94 12.47 276.56 26.3 283.25 19.39C302.42 -0.44 333.28 -3.12 355.58 13.12C415.11 56.47 554.82 158.19 614.35 201.54Z" id="c16SZrlBxH"></path><path d="M585.66 198.48C611.25 198.48 632 219.22 632 244.82C632 290.43 632 380.94 632 426.55C632 452.14 611.25 472.89 585.66 472.89C575.95 472.89 593.17 472.89 583.46 472.89C557.87 472.89 537.12 452.14 537.12 426.55C537.12 380.94 537.12 290.43 537.12 244.82C537.12 219.22 557.87 198.48 583.46 198.48C593.17 198.48 575.95 198.48 585.66 198.48Z" id="b1hLUAP96v"></path></defs><g><g><g><use xlink:href="#cr4MB67TT" opacity="1" fill="#206ea5" fill-opacity="1"></use></g><g><use xlink:href="#b3mijboK1" opacity="1" fill="#206ea5" fill-opacity="1"></use></g><g><use xlink:href="#c16SZrlBxH" opacity="1" fill="#206ea5" fill-opacity="1"></use></g><g><use xlink:href="#b1hLUAP96v" opacity="1" fill="#206ea5" fill-opacity="1"></use></g></g></g></svg>